<?xml version="1.0" standalone="no"?>
<!DOCTYPE svg PUBLIC "-//W3C//DTD SVG 20010904//EN"
 "http://www.w3.org/TR/2001/REC-SVG-20010904/DTD/svg10.dtd">
<svg version="1.0" xmlns="http://www.w3.org/2000/svg"
 width="128.000000pt" height="128.000000pt" viewBox="0 0 128.000000 128.000000"
 preserveAspectRatio="xMidYMid meet">

<g transform="translate(0.000000,128.000000) scale(0.100000,-0.100000)"
fill="#000000" stroke="none">
<path d="M506 1142 c-2 -4 1 -26 7 -49 10 -38 8 -46 -21 -105 -18 -34 -66
-103 -107 -153 -86 -102 -132 -186 -144 -265 -32 -200 119 -398 337 -440 200
-40 428 123 461 328 19 120 -34 273 -126 365 -65 65 -87 62 -91 -13 -3 -80
-10 -102 -29 -98 -13 2 -20 24 -30 92 -16 111 -56 199 -117 260 -67 67 -126
100 -140 78z m181 -569 c113 -124 140 -186 114 -266 -15 -45 -68 -92 -121
-108 -129 -39 -257 116 -195 235 15 29 107 141 134 164 22 18 30 15 68 -25z"/>
</g>
</svg>
